<svg xmlns="http://www.w3.org/2000/svg" xmlns:xlink="http://www.w3.org/1999/xlink" width="48" zoomAndPan="magnify" viewBox="0 0 36 36.000001" height="48" preserveAspectRatio="xMidYMid meet" version="1.0"><defs><clipPath id="827b10b333"><path d="M 14 11 L 35.511719 11 L 35.511719 27.535156 L 14 27.535156 Z M 14 11 " clip-rule="nonzero"/></clipPath><clipPath id="adb0505116"><path d="M 0.488281 7.832031 L 14 7.832031 L 14 24 L 0.488281 24 Z M 0.488281 7.832031 " clip-rule="nonzero"/></clipPath></defs><g clip-path="url(#827b10b333)"><path fill="#fca311" d="M 35.507812 12.414062 L 31.019531 27.511719 L 27.828125 27.511719 L 24.328125 17.140625 L 20.8125 27.511719 L 17.597656 27.511719 L 14.425781 16.851562 L 17.121094 14.484375 L 20.660156 11.378906 L 17.5 15.882812 L 19.300781 22.546875 L 22.582031 12.414062 L 26.035156 12.414062 L 29.3125 22.546875 L 32.054688 12.414062 Z M 35.507812 12.414062 " fill-opacity="1" fill-rule="nonzero"/></g><g clip-path="url(#adb0505116)"><path fill="#000000" d="M 10.089844 7.855469 L 6.53125 7.855469 L 0.488281 22.953125 L 4.046875 22.953125 L 4.996094 20.578125 L 8.710938 20.578125 L 6.390625 23.675781 L 9.917969 20.578125 L 13.8125 17.160156 Z M 6.097656 17.832031 L 8.296875 12.316406 L 10.5 17.832031 Z M 6.097656 17.832031 " fill-opacity="1" fill-rule="nonzero"/></g></svg>