<svg xmlns="http://www.w3.org/2000/svg" xmlns:xlink="http://www.w3.org/1999/xlink" width="100" zoomAndPan="magnify" viewBox="0 0 75 42" height="56" preserveAspectRatio="xMidYMid meet" version="1.0"><defs><clipPath id="2c5d41a38e"><path d="M 30 7 L 74.125 7 L 74.125 40.558594 L 30 40.558594 Z M 30 7 " clip-rule="nonzero"/></clipPath><clipPath id="2cb33e5e3e"><path d="M 0.871094 0.265625 L 29 0.265625 L 29 33 L 0.871094 33 Z M 0.871094 0.265625 " clip-rule="nonzero"/></clipPath></defs><g clip-path="url(#2c5d41a38e)"><path fill="#fca311" d="M 74.117188 9.640625 L 64.730469 40.5 L 58.050781 40.5 L 50.738281 19.300781 L 43.382812 40.5 L 36.65625 40.5 L 30.027344 18.710938 L 35.660156 13.875 L 43.0625 7.523438 L 36.453125 16.730469 L 40.222656 30.347656 L 47.082031 9.640625 L 54.304688 9.640625 L 61.160156 30.347656 L 66.894531 9.640625 Z M 74.117188 9.640625 " fill-opacity="1" fill-rule="nonzero"/></g><g clip-path="url(#2cb33e5e3e)"><path fill="#000000" d="M 20.957031 0.320312 L 13.511719 0.320312 L 0.871094 31.179688 L 8.316406 31.179688 L 10.304688 26.328125 L 18.074219 26.328125 L 13.21875 32.660156 L 20.597656 26.328125 L 28.746094 19.335938 Z M 12.609375 20.710938 L 17.210938 9.4375 L 21.8125 20.710938 Z M 12.609375 20.710938 " fill-opacity="1" fill-rule="nonzero"/></g></svg>